<svg width="213" height="36" viewBox="0 0 213 36" fill="none" xmlns="http://www.w3.org/2000/svg">
<path d="M204.25 29.1666V14.5833" stroke="#1DA1F2" stroke-width="5.10417" stroke-linecap="round" stroke-linejoin="round"/>
<path d="M195.5 29.1666V5.83331" stroke="#1DA1F2" stroke-width="5.10417" stroke-linecap="round" stroke-linejoin="round"/>
<path d="M186.75 29.1667V20.4167" stroke="#1DA1F2" stroke-width="5.10417" stroke-linecap="round" stroke-linejoin="round"/>
<path d="M3.25195 7.10449H15.3223C17.0801 7.10449 18.6035 7.29492 19.8926 7.67578C21.1816 8.05664 22.251 8.6084 23.1006 9.33105C23.9502 10.0439 24.5801 10.918 24.9902 11.9531C25.4102 12.9883 25.6201 14.1553 25.6201 15.4541C25.6201 16.6748 25.415 17.8027 25.0049 18.8379C24.5947 19.873 23.9648 20.7715 23.1152 21.5332C22.2754 22.2852 21.2109 22.876 19.9219 23.3057C18.6328 23.7256 17.1094 23.9355 15.3516 23.9355L7.89551 23.9209V30H3.25195V7.10449ZM15.4395 19.9072C16.3184 19.9072 17.085 19.8047 17.7393 19.5996C18.4033 19.3848 18.9551 19.0869 19.3945 18.7061C19.8438 18.3154 20.1758 17.8467 20.3906 17.2998C20.6152 16.7432 20.7275 16.1279 20.7275 15.4541C20.7275 14.0967 20.2832 13.042 19.3945 12.29C18.5156 11.5283 17.1973 11.1475 15.4395 11.1475H7.89551V19.9072H15.4395ZM30.1172 7.10449H34.79V30H30.1172V7.10449ZM40.7227 7.10449H52.3682C54.126 7.10449 55.6494 7.29004 56.9385 7.66113C58.2275 8.02246 59.2969 8.5498 60.1465 9.24316C60.9961 9.93652 61.626 10.7812 62.0361 11.7773C62.4561 12.7734 62.666 13.9014 62.666 15.1611C62.666 16.0107 62.5635 16.8213 62.3584 17.5928C62.1533 18.3545 61.8359 19.0576 61.4062 19.7021C60.9863 20.3467 60.4541 20.9229 59.8096 21.4307C59.165 21.9287 58.4082 22.3438 57.5391 22.6758L62.5195 30H56.8359L52.5293 23.4961H52.3975L45.3662 23.4814V30H40.7227V7.10449ZM52.4854 19.4678C53.3643 19.4678 54.1309 19.3652 54.7852 19.1602C55.4492 18.9551 56.001 18.667 56.4404 18.2959C56.8896 17.9248 57.2217 17.4756 57.4365 16.9482C57.6611 16.4111 57.7734 15.8154 57.7734 15.1611C57.7734 13.8818 57.334 12.8955 56.4551 12.2021C55.5762 11.499 54.2529 11.1475 52.4854 11.1475H45.3662V19.4678H52.4854ZM75.9814 7.10449H80.9033L91.9775 30H87.0996L85.2686 26.1475H71.8945L70.1221 30H65.2295L75.9814 7.10449ZM83.4375 22.3242L78.4863 11.9238L73.667 22.3242H83.4375ZM95.5078 7.10449H100.151L114.419 14.5752V7.10449H119.062V30H114.419V19.4971L100.151 12.0703V30H95.5078V7.10449ZM132.554 24.3311L122.549 7.10449H127.808L134.854 20.127L141.812 7.10449H147.07L137.197 24.3018V30H132.554V24.3311ZM158.394 7.10449H163.315L174.39 30H169.512L167.681 26.1475H154.307L152.534 30H147.642L158.394 7.10449ZM165.85 22.3242L160.898 11.9238L156.079 22.3242H165.85Z" fill="black"/>
<path d="M3.25195 7.10449V6.10449C2.69967 6.10449 2.25195 6.55221 2.25195 7.10449H3.25195ZM23.1006 9.33105L22.4527 10.0928L22.4578 10.0971L23.1006 9.33105ZM24.9902 11.9531L24.0605 12.3215L24.0636 12.329L24.9902 11.9531ZM23.1152 21.5332L23.7823 22.2782L23.7828 22.2778L23.1152 21.5332ZM19.9219 23.3057L20.2316 24.2565L20.2381 24.2543L19.9219 23.3057ZM15.3516 23.9355L15.3496 24.9355H15.3516V23.9355ZM7.89551 23.9209L7.89747 22.9209C7.63192 22.9204 7.37706 23.0255 7.1891 23.2131C7.00113 23.4007 6.89551 23.6553 6.89551 23.9209H7.89551ZM7.89551 30V31C8.44779 31 8.89551 30.5523 8.89551 30H7.89551ZM3.25195 30H2.25195C2.25195 30.5523 2.69967 31 3.25195 31V30ZM17.7393 19.5996L18.0384 20.5539L18.0471 20.5511L17.7393 19.5996ZM19.3945 18.7061L20.0495 19.4617L20.0507 19.4607L19.3945 18.7061ZM20.3906 17.2998L19.4632 16.9256L19.4599 16.9342L20.3906 17.2998ZM19.3945 12.29L18.7396 13.0458L18.7486 13.0534L19.3945 12.29ZM7.89551 11.1475V10.1475C7.34322 10.1475 6.89551 10.5952 6.89551 11.1475H7.89551ZM7.89551 19.9072H6.89551C6.89551 20.4595 7.34322 20.9072 7.89551 20.9072V19.9072ZM3.25195 8.10449H15.3223V6.10449H3.25195V8.10449ZM15.3223 8.10449C17.0119 8.10449 18.4354 8.28799 19.6092 8.6348L20.1759 6.71676C18.7716 6.30185 17.1483 6.10449 15.3223 6.10449V8.10449ZM19.6092 8.6348C20.7913 8.98404 21.729 9.47722 22.4527 10.0928L23.7485 8.56933C22.773 7.73958 21.572 7.12924 20.1759 6.71676L19.6092 8.6348ZM22.4578 10.0971C23.1797 10.7029 23.7113 11.44 24.0606 12.3215L25.9199 11.5848C25.4489 10.3959 24.7207 9.38503 23.7434 8.565L22.4578 10.0971ZM24.0636 12.329C24.4278 13.227 24.6201 14.2634 24.6201 15.4541H26.6201C26.6201 14.0471 26.3925 12.7496 25.9169 11.5772L24.0636 12.329ZM24.6201 15.4541C24.6201 16.5609 24.4346 17.5624 24.0752 18.4695L25.9346 19.2063C26.3955 18.043 26.6201 16.7887 26.6201 15.4541H24.6201ZM24.0752 18.4695C23.7236 19.357 23.1849 20.1277 22.4477 20.7886L23.7828 22.2778C24.7448 21.4153 25.4659 20.3891 25.9346 19.2063L24.0752 18.4695ZM22.4482 20.7882C21.7288 21.4323 20.7912 21.9618 19.6056 22.357L20.2381 24.2543C21.6307 23.7901 22.822 23.138 23.7823 22.2782L22.4482 20.7882ZM19.6121 22.3548C18.4477 22.7342 17.0336 22.9355 15.3516 22.9355V24.9355C17.1851 24.9355 18.8179 24.717 20.2316 24.2565L19.6121 22.3548ZM15.3535 22.9355L7.89747 22.9209L7.89354 24.9209L15.3496 24.9355L15.3535 22.9355ZM6.89551 23.9209V30H8.89551V23.9209H6.89551ZM7.89551 29H3.25195V31H7.89551V29ZM4.25195 30V7.10449H2.25195V30H4.25195ZM15.4395 20.9072C16.3927 20.9072 17.2644 20.7964 18.0383 20.5538L17.4402 18.6454C16.9055 18.813 16.244 18.9072 15.4395 18.9072V20.9072ZM18.0471 20.5511C18.8138 20.303 19.4905 19.9462 20.0495 19.4617L18.7396 17.9504C18.4197 18.2276 17.9929 18.4665 17.4314 18.6482L18.0471 20.5511ZM20.0507 19.4607C20.6198 18.9658 21.0469 18.3642 21.3214 17.6655L19.4599 16.9342C19.3047 17.3291 19.0677 17.665 18.7384 17.9514L20.0507 19.4607ZM21.318 17.674C21.5961 16.9847 21.7275 16.2405 21.7275 15.4541H19.7275C19.7275 16.0154 19.6344 16.5016 19.4633 16.9256L21.318 17.674ZM21.7275 15.4541C21.7275 13.8568 21.192 12.5011 20.0405 11.5267L18.7486 13.0534C19.3744 13.5829 19.7275 14.3366 19.7275 15.4541H21.7275ZM20.0495 11.5343C18.9156 10.5516 17.3191 10.1475 15.4395 10.1475V12.1475C17.0754 12.1475 18.1157 12.505 18.7396 13.0457L20.0495 11.5343ZM15.4395 10.1475H7.89551V12.1475H15.4395V10.1475ZM6.89551 11.1475V19.9072H8.89551V11.1475H6.89551ZM7.89551 20.9072H15.4395V18.9072H7.89551V20.9072ZM30.1172 7.10449V6.10449C29.5649 6.10449 29.1172 6.55221 29.1172 7.10449H30.1172ZM34.79 7.10449H35.79C35.79 6.55221 35.3423 6.10449 34.79 6.10449V7.10449ZM34.79 30V31C35.3423 31 35.79 30.5523 35.79 30H34.79ZM30.1172 30H29.1172C29.1172 30.5523 29.5649 31 30.1172 31V30ZM30.1172 8.10449H34.79V6.10449H30.1172V8.10449ZM33.79 7.10449V30H35.79V7.10449H33.79ZM34.79 29H30.1172V31H34.79V29ZM31.1172 30V7.10449H29.1172V30H31.1172ZM40.7227 7.10449V6.10449C40.1704 6.10449 39.7227 6.55221 39.7227 7.10449H40.7227ZM56.9385 7.66113L56.6618 8.62213L56.6686 8.62402L56.9385 7.66113ZM62.0361 11.7773L61.1114 12.1581L61.1147 12.1658L62.0361 11.7773ZM62.3584 17.5928L63.324 17.8527L63.3248 17.8497L62.3584 17.5928ZM61.4062 19.7021L60.5742 19.1474L60.5684 19.1563L61.4062 19.7021ZM59.8096 21.4307L60.421 22.222L60.4284 22.2162L59.8096 21.4307ZM57.5391 22.6758L57.1822 21.7416C56.8966 21.8507 56.6766 22.0845 56.585 22.3761C56.4934 22.6678 56.5402 22.9853 56.7121 23.2381L57.5391 22.6758ZM62.5195 30V31C62.89 31 63.2301 30.7952 63.4034 30.4678C63.5767 30.1404 63.5548 29.744 63.3465 29.4377L62.5195 30ZM56.8359 30L56.0022 30.5521C56.1874 30.8318 56.5005 31 56.8359 31V30ZM52.5293 23.4961L53.3631 22.944C53.1779 22.6643 52.8648 22.4961 52.5293 22.4961V23.4961ZM52.3975 23.4961L52.3954 24.4961H52.3975V23.4961ZM45.3662 23.4814L45.3683 22.4814C45.1027 22.4809 44.8478 22.586 44.6598 22.7736C44.4719 22.9612 44.3662 23.2159 44.3662 23.4814H45.3662ZM45.3662 30V31C45.9185 31 46.3662 30.5523 46.3662 30H45.3662ZM40.7227 30H39.7227C39.7227 30.5523 40.1704 31 40.7227 31V30ZM54.7852 19.1602L54.4901 18.2047L54.4861 18.2059L54.7852 19.1602ZM56.4404 18.2959L55.8035 17.5249L55.7952 17.5319L56.4404 18.2959ZM57.4365 16.9482L56.5139 16.5624L56.5104 16.5709L57.4365 16.9482ZM56.4551 12.2021L55.8304 12.983L55.8357 12.9873L56.4551 12.2021ZM45.3662 11.1475V10.1475C44.8139 10.1475 44.3662 10.5952 44.3662 11.1475H45.3662ZM45.3662 19.4678H44.3662C44.3662 20.0201 44.8139 20.4678 45.3662 20.4678V19.4678ZM40.7227 8.10449H52.3682V6.10449H40.7227V8.10449ZM52.3682 8.10449C54.0596 8.10449 55.4856 8.28349 56.6618 8.62211L57.2151 6.70016C55.8132 6.29659 54.1923 6.10449 52.3682 6.10449V8.10449ZM56.6686 8.62402C57.8537 8.95622 58.792 9.42848 59.5142 10.0179L60.7788 8.46841C59.8018 7.67112 58.6013 7.0887 57.2084 6.69824L56.6686 8.62402ZM59.5142 10.0179C60.2376 10.6082 60.7657 11.3184 61.1115 12.1581L62.9608 11.3966C62.4862 10.2441 61.7546 9.26481 60.7788 8.46841L59.5142 10.0179ZM61.1147 12.1658C61.4749 13.0203 61.666 14.013 61.666 15.1611H63.666C63.666 13.7897 63.4372 12.5265 62.9576 11.3889L61.1147 12.1658ZM61.666 15.1611C61.666 15.9296 61.5734 16.6534 61.392 17.3359L63.3248 17.8497C63.5536 16.9892 63.666 16.0919 63.666 15.1611H61.666ZM61.3928 17.3328C61.2154 17.9916 60.9425 18.5949 60.5742 19.1474L62.2383 20.2568C62.7293 19.5203 63.0912 18.7174 63.324 17.8527L61.3928 17.3328ZM60.5684 19.1563C60.2118 19.7036 59.7554 20.2003 59.1907 20.6452L60.4284 22.2162C61.1528 21.6454 61.7609 20.9897 62.2441 20.248L60.5684 19.1563ZM59.1981 20.6394C58.6411 21.0698 57.9727 21.4396 57.1822 21.7416L57.8959 23.6099C58.8437 23.2479 59.689 22.7876 60.421 22.2219L59.1981 20.6394ZM56.7121 23.2381L61.6926 30.5623L63.3465 29.4377L58.366 22.1135L56.7121 23.2381ZM62.5195 29H56.8359V31H62.5195V29ZM57.6697 29.4479L53.3631 22.944L51.6955 24.0482L56.0022 30.5521L57.6697 29.4479ZM52.5293 22.4961H52.3975V24.4961H52.5293V22.4961ZM52.3995 22.4961L45.3683 22.4814L45.3641 24.4814L52.3954 24.4961L52.3995 22.4961ZM44.3662 23.4814V30H46.3662V23.4814H44.3662ZM45.3662 29H40.7227V31H45.3662V29ZM41.7227 30V7.10449H39.7227V30H41.7227ZM52.4854 20.4678C53.4386 20.4678 54.3103 20.357 55.0842 20.1144L54.4861 18.2059C53.9514 18.3735 53.2899 18.4678 52.4854 18.4678V20.4678ZM55.0802 20.1156C55.8465 19.879 56.5245 19.5338 57.0856 19.0599L55.7952 17.5319C55.4775 17.8002 55.0519 18.0312 54.4901 18.2047L55.0802 20.1156ZM57.0773 19.0669C57.6509 18.593 58.0839 18.0097 58.3626 17.3255L56.5104 16.5709C56.3595 16.9415 56.1284 17.2566 55.8035 17.5249L57.0773 19.0669ZM58.3591 17.334C58.6408 16.6605 58.7734 15.9315 58.7734 15.1611H56.7734C56.7734 15.6993 56.6815 16.1618 56.5139 16.5624L58.3591 17.334ZM58.7734 15.1611C58.7734 13.6251 58.23 12.3287 57.0744 11.417L55.8357 12.9873C56.4379 13.4623 56.7734 14.1386 56.7734 15.1611H58.7734ZM57.0798 11.4213C55.9474 10.5154 54.3582 10.1475 52.4854 10.1475V12.1475C54.1477 12.1475 55.2049 12.4827 55.8304 12.983L57.0798 11.4213ZM52.4854 10.1475H45.3662V12.1475H52.4854V10.1475ZM44.3662 11.1475V19.4678H46.3662V11.1475H44.3662ZM45.3662 20.4678H52.4854V18.4678H45.3662V20.4678ZM75.9814 7.10449V6.10449C75.5938 6.10449 75.2411 6.32853 75.0763 6.67942L75.9814 7.10449ZM80.9033 7.10449L81.8035 6.66907C81.6366 6.32382 81.2868 6.10449 80.9033 6.10449V7.10449ZM91.9775 30V31C92.3218 31 92.6418 30.8229 92.8247 30.5313C93.0076 30.2397 93.0277 29.8745 92.8778 29.5646L91.9775 30ZM87.0996 30L86.1964 30.4293C86.3621 30.7779 86.7136 31 87.0996 31V30ZM85.2686 26.1475L86.1717 25.7182C86.006 25.3696 85.6545 25.1475 85.2686 25.1475V26.1475ZM71.8945 26.1475V25.1475C71.504 25.1475 71.1493 25.3748 70.9861 25.7295L71.8945 26.1475ZM70.1221 30V31C70.5126 31 70.8673 30.7727 71.0305 30.418L70.1221 30ZM65.2295 30L64.3243 29.5749C64.1789 29.8847 64.2019 30.2473 64.3854 30.5362C64.5688 30.825 64.8873 31 65.2295 31V30ZM83.4375 22.3242V23.3242C83.7806 23.3242 84.0998 23.1483 84.283 22.8581C84.4662 22.568 84.4879 22.2042 84.3404 21.8944L83.4375 22.3242ZM78.4863 11.9238L79.3892 11.494C79.2226 11.144 78.8688 10.9218 78.4811 10.9238C78.0935 10.9259 77.742 11.1517 77.579 11.5034L78.4863 11.9238ZM73.667 22.3242L72.7597 21.9038C72.6162 22.2134 72.6405 22.5749 72.8242 22.8625C73.008 23.1502 73.3257 23.3242 73.667 23.3242V22.3242ZM75.9814 8.10449H80.9033V6.10449H75.9814V8.10449ZM80.0031 7.53992L91.0773 30.4354L92.8778 29.5646L81.8035 6.66907L80.0031 7.53992ZM91.9775 29H87.0996V31H91.9775V29ZM88.0028 29.5707L86.1717 25.7182L84.3654 26.5767L86.1964 30.4293L88.0028 29.5707ZM85.2686 25.1475H71.8945V27.1475H85.2686V25.1475ZM70.9861 25.7295L69.2136 29.582L71.0305 30.418L72.803 26.5654L70.9861 25.7295ZM70.1221 29H65.2295V31H70.1221V29ZM66.1347 30.4251L76.8866 7.52956L75.0763 6.67942L64.3243 29.5749L66.1347 30.4251ZM84.3404 21.8944L79.3892 11.494L77.5834 12.3537L82.5346 22.7541L84.3404 21.8944ZM77.579 11.5034L72.7597 21.9038L74.5743 22.7447L79.3937 12.3443L77.579 11.5034ZM73.667 23.3242H83.4375V21.3242H73.667V23.3242ZM95.5078 7.10449V6.10449C94.9555 6.10449 94.5078 6.55221 94.5078 7.10449H95.5078ZM100.151 7.10449L100.615 6.21859C100.472 6.14364 100.313 6.10449 100.151 6.10449V7.10449ZM114.419 14.5752L113.955 15.4611C114.265 15.6234 114.637 15.6119 114.937 15.4307C115.236 15.2496 115.419 14.9251 115.419 14.5752H114.419ZM114.419 7.10449V6.10449C113.867 6.10449 113.419 6.55221 113.419 7.10449H114.419ZM119.062 7.10449H120.062C120.062 6.55221 119.615 6.10449 119.062 6.10449V7.10449ZM119.062 30V31C119.615 31 120.062 30.5523 120.062 30H119.062ZM114.419 30H113.419C113.419 30.5523 113.867 31 114.419 31V30ZM114.419 19.4971H115.419C115.419 19.1242 115.211 18.7822 114.881 18.61L114.419 19.4971ZM100.151 12.0703L100.613 11.1833C100.303 11.0219 99.9314 11.0341 99.6326 11.2154C99.3338 11.3967 99.1514 11.7208 99.1514 12.0703H100.151ZM100.151 30V31C100.704 31 101.151 30.5523 101.151 30H100.151ZM95.5078 30H94.5078C94.5078 30.5523 94.9555 31 95.5078 31V30ZM95.5078 8.10449H100.151V6.10449H95.5078V8.10449ZM99.6875 7.99039L113.955 15.4611L114.883 13.6893L100.615 6.21859L99.6875 7.99039ZM115.419 14.5752V7.10449H113.419V14.5752H115.419ZM114.419 8.10449H119.062V6.10449H114.419V8.10449ZM118.062 7.10449V30H120.062V7.10449H118.062ZM119.062 29H114.419V31H119.062V29ZM115.419 30V19.4971H113.419V30H115.419ZM114.881 18.61L100.613 11.1833L99.6896 12.9573L113.957 20.3841L114.881 18.61ZM99.1514 12.0703V30H101.151V12.0703H99.1514ZM100.151 29H95.5078V31H100.151V29ZM96.5078 30V7.10449H94.5078V30H96.5078ZM132.554 24.3311H133.554C133.554 24.1546 133.507 23.9814 133.418 23.8288L132.554 24.3311ZM122.549 7.10449V6.10449C122.191 6.10449 121.861 6.29558 121.682 6.60561C121.504 6.91563 121.504 7.29738 121.684 7.60672L122.549 7.10449ZM127.808 7.10449L128.687 6.62862C128.512 6.3057 128.175 6.10449 127.808 6.10449V7.10449ZM134.854 20.127L133.974 20.6028C134.149 20.9266 134.488 21.1279 134.856 21.1269C135.224 21.126 135.562 20.9229 135.736 20.5982L134.854 20.127ZM141.812 7.10449V6.10449C141.442 6.10449 141.103 6.30774 140.93 6.63323L141.812 7.10449ZM147.07 7.10449L147.938 7.60238C148.115 7.29292 148.115 6.91224 147.936 6.60344C147.757 6.29463 147.427 6.10449 147.07 6.10449V7.10449ZM137.197 24.3018L136.33 23.8039C136.243 23.9554 136.197 24.127 136.197 24.3018H137.197ZM137.197 30V31C137.75 31 138.197 30.5523 138.197 30H137.197ZM132.554 30H131.554C131.554 30.5523 132.001 31 132.554 31V30ZM133.418 23.8288L123.414 6.60227L121.684 7.60672L131.689 24.8333L133.418 23.8288ZM122.549 8.10449H127.808V6.10449H122.549V8.10449ZM126.928 7.58036L133.974 20.6028L135.733 19.6511L128.687 6.62862L126.928 7.58036ZM135.736 20.5982L142.694 7.57575L140.93 6.63323L133.972 19.6557L135.736 20.5982ZM141.812 8.10449H147.07V6.10449H141.812V8.10449ZM146.203 6.6066L136.33 23.8039L138.065 24.7996L147.938 7.60238L146.203 6.6066ZM136.197 24.3018V30H138.197V24.3018H136.197ZM137.197 29H132.554V31H137.197V29ZM133.554 30V24.3311H131.554V30H133.554ZM158.394 7.10449V6.10449C158.006 6.10449 157.653 6.32853 157.488 6.67942L158.394 7.10449ZM163.315 7.10449L164.216 6.66907C164.049 6.32382 163.699 6.10449 163.315 6.10449V7.10449ZM174.39 30V31C174.734 31 175.054 30.8229 175.237 30.5313C175.42 30.2397 175.44 29.8745 175.29 29.5646L174.39 30ZM169.512 30L168.609 30.4293C168.774 30.7779 169.126 31 169.512 31V30ZM167.681 26.1475L168.584 25.7182C168.418 25.3696 168.067 25.1475 167.681 25.1475V26.1475ZM154.307 26.1475V25.1475C153.916 25.1475 153.561 25.3748 153.398 25.7295L154.307 26.1475ZM152.534 30V31C152.925 31 153.279 30.7727 153.443 30.418L152.534 30ZM147.642 30L146.736 29.5749C146.591 29.8847 146.614 30.2473 146.797 30.5362C146.981 30.825 147.299 31 147.642 31V30ZM165.85 22.3242V23.3242C166.193 23.3242 166.512 23.1483 166.695 22.8581C166.878 22.568 166.9 22.2042 166.753 21.8944L165.85 22.3242ZM160.898 11.9238L161.801 11.494C161.635 11.144 161.281 10.9218 160.893 10.9238C160.506 10.9259 160.154 11.1517 159.991 11.5034L160.898 11.9238ZM156.079 22.3242L155.172 21.9038C155.028 22.2134 155.053 22.5749 155.236 22.8625C155.42 23.1502 155.738 23.3242 156.079 23.3242V22.3242ZM158.394 8.10449H163.315V6.10449H158.394V8.10449ZM162.415 7.53992L173.489 30.4354L175.29 29.5646L164.216 6.66907L162.415 7.53992ZM174.39 29H169.512V31H174.39V29ZM170.415 29.5707L168.584 25.7182L166.777 26.5767L168.609 30.4293L170.415 29.5707ZM167.681 25.1475H154.307V27.1475H167.681V25.1475ZM153.398 25.7295L151.626 29.582L153.443 30.418L155.215 26.5654L153.398 25.7295ZM152.534 29H147.642V31H152.534V29ZM148.547 30.4251L159.299 7.52956L157.488 6.67942L146.736 29.5749L148.547 30.4251ZM166.753 21.8944L161.801 11.494L159.996 12.3537L164.947 22.7541L166.753 21.8944ZM159.991 11.5034L155.172 21.9038L156.986 22.7447L161.806 12.3443L159.991 11.5034ZM156.079 23.3242H165.85V21.3242H156.079V23.3242Z" fill="black"/>
</svg>
